<svg
    xmlns="http://www.w3.org/2000/svg"
    viewBox="0 0 250.7 176.9"
    fill="#173643"
>
    <path d="M239.7,16.4c-8.9-10.6-25.5-15-57-15H68C35.8,1.4,18.9,6,10,17.4c-8.7,11-8.7,27.3-8.7,49.9v42.9 C1.3,153.8,11.6,176,68,176h114.6c27.4,0,42.5-3.8,52.4-13.2c10.1-9.6,14.4-25.4,14.4-52.6V67.2C249.3,43.5,248.7,27.1,239.7,16.4 L239.7,16.4z M160.6,94.6l-52,27.2c-1.2,0.6-2.4,0.9-3.7,0.9c-1.4,0-2.9-0.4-4.1-1.2c-2.4-1.4-3.9-4-3.9-6.8V60.5 c0-2.8,1.5-5.4,3.8-6.8c2.4-1.5,5.4-1.6,7.8-0.3l52,27c2.6,1.4,4.3,4.1,4.3,7.1C164.8,90.5,163.2,93.2,160.6,94.6L160.6,94.6z M160.6,94.6"/>
</svg>