<svg
    xmlns="http://www.w3.org/2000/svg"
    viewBox="0 0 100.7 100.5"
    fill="#173643"
>
    <path d="M80.6,0.6H19.9C9.3,0.6,0.8,9.1,0.8,19.7v20.2v7.4v33.1c0,10.5,8.6,19.1,19.1,19.1h60.7c10.6,0,19.1-8.6,19.1-19.1V47.4 v-7.5V19.7C99.8,9.1,91.2,0.6,80.6,0.6z M86.1,12l2.2,0v2.2v14.6l-16.7,0.1L71.5,12L86.1,12z M36.1,39.9c3.2-4.4,8.3-7.3,14.1-7.3 c5.8,0,11,2.9,14.1,7.3c0.4,0.5,0.7,1.1,1,1.7c1.4,2.5,2.3,5.4,2.3,8.5c0,9.6-7.8,17.4-17.4,17.4c-9.6,0-17.4-7.8-17.4-17.4 c0-3.1,0.8-6,2.3-8.5C35.4,41,35.8,40.4,36.1,39.9z M90.1,80.4c0,5.2-4.3,9.5-9.5,9.5H19.9c-5.2,0-9.5-4.3-9.5-9.5V45v-5.1h14.8 c-0.4,0.9-0.7,1.8-1,2.8c-0.7,2.3-1,4.8-1,7.4c0,14.9,12.1,27.1,27.1,27.1c14.9,0,27.1-12.1,27.1-27.1c0-2.6-0.4-5-1-7.4 c-0.3-1-0.6-1.9-1-2.8h14.8V45V80.4z"/>
</svg>